<svg width="137" height="64" viewBox="0 0 137 64" fill="none" xmlns="http://www.w3.org/2000/svg">
<path d="M9.74816 33.8396C8.2027 33.8396 6.81798 33.5864 5.59398 33.0802C4.36982 32.574 3.38643 31.8248 2.64391 30.8326C1.92144 29.8405 1.54015 28.6458 1.5 27.2487H6.9787C7.0588 28.0383 7.32972 28.6458 7.79148 29.071C8.25323 29.476 8.85529 29.6785 9.59765 29.6785C10.3604 29.6785 10.9625 29.5064 11.4038 29.1621C11.8451 28.7977 12.0661 28.3016 12.0661 27.6739C12.0661 27.1474 11.8855 26.7121 11.5242 26.3678C11.1829 26.0236 10.7518 25.7401 10.2298 25.5174C9.72827 25.2946 9.0058 25.0416 8.0624 24.7581C6.69757 24.3329 5.58377 23.9076 4.721 23.4824C3.85807 23.0572 3.1155 22.4295 2.49339 21.5993C1.87129 20.7691 1.56021 19.6858 1.56021 18.3494C1.56021 16.365 2.27262 14.816 3.6975 13.7023C5.12255 12.5684 6.97871 12.0015 9.26652 12.0015C11.5946 12.0015 13.4707 12.5684 14.8957 13.7023C16.3208 14.816 17.083 16.3752 17.1835 18.3798H11.6145C11.5742 17.6913 11.3237 17.1547 10.862 16.77C10.4002 16.365 9.80836 16.1625 9.0859 16.1625C8.46395 16.1625 7.96188 16.3346 7.58076 16.6789C7.19964 17.0028 7.00881 17.4787 7.00881 18.1064C7.00881 18.7948 7.32972 19.3315 7.9721 19.7162C8.61447 20.1009 9.61753 20.516 10.9824 20.9615C12.3472 21.4272 13.4508 21.8727 14.2937 22.2979C15.1564 22.7231 15.8993 23.3407 16.5213 24.1506C17.1432 24.9605 17.4545 26.0034 17.4545 27.279C17.4545 28.4939 17.1432 29.5975 16.5213 30.5897C15.9192 31.5818 15.036 32.3715 13.8722 32.9587C12.7084 33.546 11.3334 33.8396 9.74816 33.8396Z" fill="#252739"/>
<path d="M28.7516 16.4663V20.7792H35.6451V24.7884H28.7516V29.4659H36.5482V33.6269H23.604V12.3052H36.5482V16.4663H28.7516Z" fill="#56C6E7"/>
<path d="M5.83265 57.0708C4.99551 57.0708 4.23864 56.926 3.56204 56.6369C2.89692 56.3478 2.3694 55.9313 1.9795 55.3873C1.5896 54.8433 1.38891 54.2013 1.37744 53.4608H3.95768C3.99208 53.9583 4.1641 54.3519 4.47373 54.641C4.79482 54.9301 5.2306 55.0749 5.78105 55.0749C6.34295 55.0749 6.78449 54.942 7.10557 54.6757C7.42665 54.398 7.58721 54.0393 7.58721 53.5996C7.58721 53.241 7.47825 52.9459 7.26038 52.7145C7.04251 52.4831 6.76729 52.3037 6.43471 52.1765C6.11363 52.0376 5.66637 51.8872 5.09298 51.7252C4.31318 51.4938 3.67672 51.2681 3.18361 51.0483C2.70196 50.8169 2.28339 50.4756 1.92789 50.0243C1.58386 49.5615 1.41184 48.9482 1.41184 48.1846C1.41184 47.4672 1.5896 46.8424 1.94509 46.3101C2.30059 45.7779 2.79944 45.3729 3.44163 45.0952C4.08383 44.806 4.81776 44.6613 5.64343 44.6613C6.88195 44.6613 7.88539 44.9679 8.65371 45.5812C9.43353 46.1829 9.86357 47.0275 9.94383 48.1152H7.29479C7.27183 47.6986 7.09412 47.3573 6.76154 47.0912C6.44046 46.8135 6.01042 46.6746 5.47142 46.6746C5.00124 46.6746 4.6228 46.7961 4.33611 47.0391C4.06089 47.2821 3.92328 47.635 3.92328 48.0978C3.92328 48.4218 4.02648 48.6937 4.2329 48.9135C4.45079 49.1218 4.71455 49.2954 5.02418 49.4342C5.34527 49.5615 5.79251 49.7119 6.3659 49.8855C7.14572 50.1169 7.78218 50.3483 8.27528 50.5797C8.76837 50.8111 9.19271 51.1583 9.54819 51.6211C9.90367 52.0839 10.0814 52.6913 10.0814 53.4434C10.0814 54.0914 9.91518 54.6931 9.5826 55.2485C9.25001 55.8038 8.76267 56.2491 8.12046 56.5849C7.47825 56.9087 6.71568 57.0708 5.83265 57.0708ZM13.3906 46.1887C12.9663 46.1887 12.6108 46.0556 12.3241 45.7895C12.0489 45.5118 11.9113 45.1705 11.9113 44.7655C11.9113 44.3605 12.0489 44.025 12.3241 43.7588C12.6108 43.4811 12.9663 43.3423 13.3906 43.3423C13.8149 43.3423 14.1647 43.4811 14.4399 43.7588C14.7266 44.025 14.8699 44.3605 14.8699 44.7655C14.8699 45.1705 14.7266 45.5118 14.4399 45.7895C14.1647 46.0556 13.8149 46.1887 13.3906 46.1887ZM14.5775 47.3341V56.9493H12.1693V47.3341H14.5775ZM22.2377 47.1953C23.3731 47.1953 24.2904 47.5598 24.99 48.2887C25.6895 49.0061 26.0393 50.0128 26.0393 51.3087V56.9493H23.6311V51.6384C23.6311 50.8748 23.4419 50.2905 23.0634 49.8855C22.685 49.4689 22.1689 49.2607 21.5153 49.2607C20.8501 49.2607 20.3226 49.4689 19.9327 49.8855C19.5543 50.2905 19.3651 50.8748 19.3651 51.6384V56.9493H16.9569V47.3341H19.3651V48.5317C19.6862 48.1152 20.0932 47.7912 20.5864 47.5598C21.0909 47.3168 21.6414 47.1953 22.2377 47.1953ZM27.7101 52.107C27.7101 51.1351 27.8993 50.2731 28.2778 49.521C28.6676 48.7689 29.1894 48.1904 29.8431 47.7854C30.5082 47.3804 31.2479 47.1779 32.0621 47.1779C32.7731 47.1779 33.3924 47.3226 33.9199 47.6118C34.4589 47.9011 34.8889 48.2656 35.21 48.7053V47.3341H37.6354V56.9493H35.21V55.5435C34.9004 55.9948 34.4703 56.3706 33.9199 56.6716C33.3809 56.9607 32.7559 57.1055 32.0449 57.1055C31.2422 57.1055 30.5082 56.8973 29.8431 56.4807C29.1894 56.0642 28.6676 55.48 28.2778 54.7278C27.8993 53.9641 27.7101 53.0905 27.7101 52.107ZM35.21 52.1417C35.21 51.5516 35.0953 51.0483 34.866 50.6318C34.6366 50.2037 34.327 49.8797 33.9371 49.6598C33.5472 49.4284 33.1286 49.3127 32.6814 49.3127C32.2341 49.3127 31.8213 49.4227 31.4429 49.6425C31.0644 49.8623 30.7548 50.1863 30.514 50.6144C30.2846 51.031 30.1699 51.5285 30.1699 52.107C30.1699 52.6856 30.2846 53.1946 30.514 53.6344C30.7548 54.0624 31.0644 54.392 31.4429 54.6236C31.8327 54.8552 32.2456 54.9708 32.6814 54.9708C33.1286 54.9708 33.5472 54.8607 33.9371 54.641C34.327 54.4094 34.6366 54.0856 34.866 53.6691C35.0953 53.241 35.21 52.7318 35.21 52.1417ZM42.3957 48.8268C42.7053 48.3176 43.1067 47.9184 43.5998 47.6292C44.1044 47.34 44.6777 47.1953 45.32 47.1953V49.7466H44.6835C43.9266 49.7466 43.3532 49.926 42.9633 50.2847C42.5849 50.6433 42.3957 51.2681 42.3957 52.1591V56.9493H39.9875V47.3341H42.3957V48.8268ZM53.1133 46.1366V50.1805H57.4825V51.4822H53.1133V55.6476H57.9986V56.9493H51.548V44.8349H57.9986V46.1366H53.1133ZM59.7822 52.1591C59.7822 51.1872 59.9773 50.3367 60.367 49.6078C60.7573 48.8673 61.2906 48.2945 61.9668 47.8895C62.6549 47.4845 63.4235 47.2821 64.2718 47.2821C65.0061 47.2821 65.6882 47.4556 66.3188 47.8028C66.9499 48.1383 67.4315 48.5838 67.7637 49.1392V44.1059H69.3463V56.9493H67.7637V55.1617C67.4541 55.7285 66.9956 56.1971 66.3876 56.5675C65.7802 56.926 65.069 57.1055 64.2546 57.1055C63.4176 57.1055 62.6549 56.8973 61.9668 56.4807C61.2906 56.0642 60.7573 55.48 60.367 54.7278C59.9773 53.9757 59.7822 53.1195 59.7822 52.1591ZM67.7637 52.1765C67.7637 51.4591 67.6207 50.8342 67.3337 50.302C67.0472 49.7698 66.6574 49.3648 66.164 49.0871C65.6823 48.7978 65.1491 48.6532 64.5642 48.6532C63.9794 48.6532 63.4461 48.792 62.9645 49.0697C62.4828 49.3474 62.099 49.7524 61.812 50.2847C61.5255 50.8169 61.3819 51.4417 61.3819 52.1591C61.3819 52.888 61.5255 53.5244 61.812 54.0683C62.099 54.6003 62.4828 55.0114 62.9645 55.3005C63.4461 55.5782 63.9794 55.7171 64.5642 55.7171C65.1491 55.7171 65.6823 55.5782 66.164 55.3005C66.6574 55.0114 67.0472 54.6003 67.3337 54.0683C67.6207 53.5244 67.7637 52.8938 67.7637 52.1765ZM80.3515 47.4383V56.9493H78.7862V55.5435C78.4884 56.0295 78.0696 56.4113 77.5305 56.689C77.0031 56.9553 76.4183 57.0882 75.7759 57.0882C75.0421 57.0882 74.3826 56.9379 73.7977 56.6369C73.2129 56.3245 72.7484 55.8619 72.4044 55.2485C72.0722 54.635 71.9055 53.8889 71.9055 53.0095V47.4383H73.4537V52.8013C73.4537 53.7385 73.6891 54.4615 74.1589 54.9708C74.6293 55.4681 75.2717 55.7171 76.0855 55.7171C76.923 55.7171 77.5821 55.4567 78.0637 54.936C78.5453 54.4154 78.7862 53.6575 78.7862 52.6624V47.4383H80.3515ZM82.4098 52.1765C82.4098 51.193 82.6049 50.3367 82.9946 49.6078C83.3844 48.8673 83.9235 48.2945 84.6116 47.8895C85.3109 47.4845 86.1081 47.2821 87.0026 47.2821C88.161 47.2821 89.1125 47.5656 89.8581 48.1325C90.6149 48.6995 91.1138 49.4863 91.3546 50.4929H89.6689C89.5081 49.9144 89.1931 49.4574 88.7228 49.1218C88.2642 48.7862 87.6907 48.6185 87.0026 48.6185C86.1081 48.6185 85.3857 48.9309 84.8352 49.5557C84.2848 50.169 84.0095 51.0425 84.0095 52.1765C84.0095 53.3219 84.2848 54.2071 84.8352 54.8319C85.3857 55.4567 86.1081 55.7691 87.0026 55.7691C87.6907 55.7691 88.2642 55.607 88.7228 55.2832C89.1813 54.9594 89.4968 54.4962 89.6689 53.8947H91.3546C91.1025 54.8666 90.5977 55.6476 89.8409 56.2377C89.084 56.8165 88.1379 57.1055 87.0026 57.1055C86.1081 57.1055 85.3109 56.9032 84.6116 56.4981C83.9235 56.0929 83.3844 55.5202 82.9946 54.7798C82.6049 54.0393 82.4098 53.1715 82.4098 52.1765ZM92.8587 52.1591C92.8587 51.1872 93.0533 50.3367 93.4435 49.6078C93.8333 48.8673 94.3665 48.2945 95.0433 47.8895C95.7313 47.4845 96.4936 47.2821 97.3311 47.2821C98.1568 47.2821 98.8733 47.4614 99.4813 47.8201C100.089 48.1788 100.542 48.63 100.84 49.1739V47.4383H102.423V56.9493H100.84V55.179C100.531 55.7344 100.066 56.1971 99.4469 56.5675C98.8389 56.926 98.1277 57.1055 97.3139 57.1055C96.4764 57.1055 95.7195 56.8973 95.0433 56.4807C94.3665 56.0642 93.8333 55.48 93.4435 54.7278C93.0533 53.9757 92.8587 53.1195 92.8587 52.1591ZM100.84 52.1765C100.84 51.4591 100.697 50.8342 100.41 50.302C100.123 49.7698 99.7334 49.3648 99.2405 49.0871C98.7588 48.7978 98.2256 48.6532 97.6407 48.6532C97.0559 48.6532 96.5226 48.792 96.041 49.0697C95.5593 49.3474 95.175 49.7524 94.8885 50.2847C94.6014 50.8169 94.4584 51.4417 94.4584 52.1591C94.4584 52.888 94.6014 53.5244 94.8885 54.0683C95.175 54.6003 95.5593 55.0114 96.041 55.3005C96.5226 55.5782 97.0559 55.7171 97.6407 55.7171C98.2256 55.7171 98.7588 55.5782 99.2405 55.3005C99.7334 55.0114 100.123 54.6003 100.41 54.0683C100.697 53.5244 100.84 52.8938 100.84 52.1765ZM106.977 48.74V54.3459C106.977 54.8086 107.075 55.1384 107.27 55.3352C107.464 55.5202 107.803 55.6129 108.284 55.6129H109.437V56.9493H108.027C107.155 56.9493 106.501 56.747 106.066 56.3419C105.63 55.9367 105.412 55.2718 105.412 54.3459V48.74H104.191V47.4383H105.412V45.0432H106.977V47.4383H109.437V48.74H106.977ZM112.142 45.8936C111.844 45.8936 111.592 45.7895 111.385 45.5812C111.179 45.3729 111.076 45.1184 111.076 44.8175C111.076 44.5167 111.179 44.2621 111.385 44.0539C111.592 43.8456 111.844 43.7415 112.142 43.7415C112.429 43.7415 112.67 43.8456 112.865 44.0539C113.071 44.2621 113.174 44.5167 113.174 44.8175C113.174 45.1184 113.071 45.3729 112.865 45.5812C112.67 45.7895 112.429 45.8936 112.142 45.8936ZM112.899 47.4383V56.9493H111.334V47.4383H112.899ZM119.678 57.1055C118.795 57.1055 117.992 56.9032 117.27 56.4981C116.559 56.0929 115.997 55.5202 115.584 54.7798C115.183 54.0277 114.982 53.1599 114.982 52.1765C114.982 51.2045 115.188 50.3483 115.601 49.6078C116.025 48.8557 116.599 48.2829 117.321 47.8895C118.044 47.4845 118.852 47.2821 119.747 47.2821C120.641 47.2821 121.45 47.4845 122.172 47.8895C122.895 48.2829 123.462 48.8499 123.875 49.5904C124.299 50.3309 124.512 51.193 124.512 52.1765C124.512 53.1599 124.293 54.0277 123.858 54.7798C123.433 55.5202 122.854 56.0929 122.121 56.4981C121.386 56.9032 120.573 57.1055 119.678 57.1055ZM119.678 55.7171C120.24 55.7171 120.767 55.5842 121.261 55.3179C121.754 55.0516 122.149 54.6524 122.448 54.1203C122.757 53.5881 122.912 52.9401 122.912 52.1765C122.912 51.4128 122.763 50.7648 122.465 50.2326C122.166 49.7004 121.777 49.3069 121.295 49.0524C120.813 48.7862 120.291 48.6532 119.73 48.6532C119.156 48.6532 118.629 48.7862 118.147 49.0524C117.677 49.3069 117.298 49.7004 117.012 50.2326C116.725 50.7648 116.582 51.4128 116.582 52.1765C116.582 52.9517 116.719 53.6054 116.995 54.1377C117.281 54.6697 117.66 55.0689 118.13 55.3352C118.6 55.5896 119.116 55.7171 119.678 55.7171ZM131.163 47.2647C132.309 47.2647 133.238 47.6176 133.949 48.3234C134.66 49.0177 135.016 50.0243 135.016 51.3434V56.9493H133.468V51.569C133.468 50.6202 133.232 49.897 132.763 49.3995C132.292 48.8904 131.65 48.6358 130.836 48.6358C130.01 48.6358 129.351 48.8962 128.858 49.4169C128.376 49.9375 128.135 50.6954 128.135 51.6905V56.9493H126.57V47.4383H128.135V48.792C128.445 48.3061 128.863 47.9301 129.391 47.6639C129.93 47.3978 130.52 47.2647 131.163 47.2647Z" fill="url(#paint0_linear_3395_2963)"/>
<defs>
<linearGradient id="paint0_linear_3395_2963" x1="3.50012" y1="52.5001" x2="141.5" y2="52.5001" gradientUnits="userSpaceOnUse">
<stop stop-color="#252739"/>
<stop offset="1" stop-color="#56C6E7"/>
</linearGradient>
</defs>
</svg>
