<svg width="136" height="64" viewBox="0 0 136 64" fill="none" xmlns="http://www.w3.org/2000/svg">
<path d="M58.4293 33.8397C56.8839 33.8397 55.4991 33.5866 54.2751 33.0804C53.051 32.5742 52.0676 31.825 51.3251 30.8328C50.6026 29.8407 50.2213 28.646 50.1812 27.2488H55.6599C55.74 28.0385 56.0109 28.646 56.4726 29.0712C56.9344 29.4762 57.5364 29.6786 58.2788 29.6786C59.0416 29.6786 59.6436 29.5066 60.085 29.1623C60.5263 28.7978 60.7472 28.3017 60.7472 27.674C60.7472 27.1476 60.5666 26.7122 60.2054 26.368C59.864 26.0238 59.4329 25.7403 58.911 25.5176C58.4094 25.2948 57.687 25.0417 56.7436 24.7582C55.3787 24.333 54.2649 23.9078 53.4022 23.4826C52.5392 23.0574 51.7966 22.4297 51.1745 21.5995C50.5524 20.7693 50.2414 19.686 50.2414 18.3496C50.2414 16.3652 50.9538 14.8162 52.3787 13.7025C53.8037 12.5686 55.6599 12.0016 57.9477 12.0016C60.2758 12.0016 62.1518 12.5686 63.5769 13.7025C65.0019 14.8162 65.7642 16.3753 65.8647 18.3799H60.2957C60.2554 17.6915 60.0049 17.1549 59.5431 16.7702C59.0814 16.3652 58.4895 16.1627 57.767 16.1627C57.1451 16.1627 56.643 16.3348 56.2619 16.6791C55.8808 17.003 55.69 17.4789 55.69 18.1066C55.69 18.795 56.0109 19.3316 56.6532 19.7163C57.2956 20.101 58.2987 20.5162 59.6635 20.9616C61.0284 21.4274 62.132 21.8728 62.9748 22.298C63.8376 22.7233 64.5805 23.3409 65.2024 24.1508C65.8244 24.9607 66.1356 26.0035 66.1356 27.2792C66.1356 28.4941 65.8244 29.5977 65.2024 30.5898C64.6004 31.582 63.7172 32.3717 62.5534 32.9589C61.3896 33.5461 60.0145 33.8397 58.4293 33.8397Z" fill="#252739"/>
<path d="M77.4327 16.4664V20.7794H84.3263V24.7886H77.4327V29.466H85.2293V33.6271H72.2852V12.3054H85.2293V16.4664H77.4327Z" fill="#56C6E7"/>
<path d="M5.33265 57.0706C4.49551 57.0706 3.73864 56.9258 3.06204 56.6367C2.39692 56.3477 1.8694 55.9311 1.4795 55.3871C1.0896 54.8431 0.888907 54.2011 0.877441 53.4606H3.45768C3.49208 53.9581 3.6641 54.3517 3.97373 54.6408C4.29482 54.9299 4.7306 55.0747 5.28105 55.0747C5.84295 55.0747 6.28449 54.9418 6.60557 54.6755C6.92665 54.3978 7.08721 54.0392 7.08721 53.5995C7.08721 53.2408 6.97825 52.9457 6.76038 52.7143C6.54251 52.4829 6.26729 52.3036 5.93471 52.1763C5.61363 52.0374 5.16637 51.887 4.59298 51.725C3.81318 51.4936 3.17672 51.268 2.68361 51.0481C2.20196 50.8167 1.78339 50.4754 1.42789 50.0241C1.08386 49.5613 0.911845 48.9481 0.911845 48.1844C0.911845 47.467 1.0896 46.8422 1.44509 46.31C1.80059 45.7777 2.29944 45.3727 2.94163 45.095C3.58383 44.8058 4.31776 44.6612 5.14343 44.6612C6.38195 44.6612 7.38539 44.9678 8.15371 45.581C8.93353 46.1827 9.36357 47.0274 9.44383 48.115H6.79479C6.77183 47.6984 6.59412 47.3571 6.26154 47.091C5.94046 46.8133 5.51042 46.6744 4.97142 46.6744C4.50124 46.6744 4.1228 46.7959 3.83611 47.0389C3.56089 47.2819 3.42328 47.6348 3.42328 48.0976C3.42328 48.4216 3.52648 48.6935 3.7329 48.9134C3.95079 49.1216 4.21455 49.2952 4.52418 49.434C4.84527 49.5613 5.29251 49.7117 5.8659 49.8853C6.64572 50.1167 7.28218 50.3481 7.77528 50.5795C8.26837 50.811 8.69271 51.1581 9.04819 51.6209C9.40367 52.0837 9.58144 52.6911 9.58144 53.4433C9.58144 54.0912 9.41518 54.6929 9.0826 55.2483C8.75001 55.8037 8.26267 56.249 7.62046 56.5847C6.97825 56.9085 6.21568 57.0706 5.33265 57.0706ZM12.8906 46.1885C12.4663 46.1885 12.1108 46.0554 11.8241 45.7893C11.5489 45.5116 11.4113 45.1703 11.4113 44.7653C11.4113 44.3603 11.5489 44.0248 11.8241 43.7586C12.1108 43.4809 12.4663 43.3421 12.8906 43.3421C13.3149 43.3421 13.6647 43.4809 13.9399 43.7586C14.2266 44.0248 14.3699 44.3603 14.3699 44.7653C14.3699 45.1703 14.2266 45.5116 13.9399 45.7893C13.6647 46.0554 13.3149 46.1885 12.8906 46.1885ZM14.0775 47.334V56.9492H11.6693V47.334H14.0775ZM21.7377 47.1951C22.8731 47.1951 23.7904 47.5596 24.49 48.2885C25.1895 49.0059 25.5393 50.0126 25.5393 51.3085V56.9492H23.1311V51.6382C23.1311 50.8746 22.9419 50.2903 22.5634 49.8853C22.185 49.4687 21.6689 49.2605 21.0153 49.2605C20.3501 49.2605 19.8226 49.4687 19.4327 49.8853C19.0543 50.2903 18.8651 50.8746 18.8651 51.6382V56.9492H16.4569V47.334H18.8651V48.5315C19.1862 48.115 19.5932 47.791 20.0864 47.5596C20.5909 47.3166 21.1414 47.1951 21.7377 47.1951ZM27.2101 52.1068C27.2101 51.1349 27.3993 50.2729 27.7778 49.5208C28.1676 48.7687 28.6894 48.1902 29.3431 47.7852C30.0082 47.3802 30.7479 47.1778 31.5621 47.1778C32.2731 47.1778 32.8924 47.3224 33.4199 47.6117C33.9589 47.9009 34.3889 48.2654 34.71 48.7051V47.334H37.1354V56.9492H34.71V55.5433C34.4004 55.9946 33.9703 56.3704 33.4199 56.6715C32.8809 56.9605 32.2559 57.1054 31.5449 57.1054C30.7422 57.1054 30.0082 56.8971 29.3431 56.4805C28.6894 56.064 28.1676 55.4799 27.7778 54.7276C27.3993 53.9639 27.2101 53.0903 27.2101 52.1068ZM34.71 52.1416C34.71 51.5515 34.5953 51.0481 34.366 50.6316C34.1366 50.2035 33.827 49.8795 33.4371 49.6597C33.0472 49.4282 32.6286 49.3125 32.1814 49.3125C31.7341 49.3125 31.3213 49.4225 30.9429 49.6423C30.5644 49.8621 30.2548 50.1861 30.014 50.6142C29.7846 51.0308 29.6699 51.5283 29.6699 52.1068C29.6699 52.6854 29.7846 53.1945 30.014 53.6342C30.2548 54.0623 30.5644 54.3919 30.9429 54.6235C31.3327 54.855 31.7456 54.9706 32.1814 54.9706C32.6286 54.9706 33.0472 54.8605 33.4371 54.6408C33.827 54.4092 34.1366 54.0854 34.366 53.6689C34.5953 53.2408 34.71 52.7317 34.71 52.1416ZM41.8957 48.8266C42.2053 48.3175 42.6067 47.9183 43.0998 47.629C43.6044 47.3398 44.1777 47.1951 44.82 47.1951V49.7464H44.1835C43.4266 49.7464 42.8532 49.9258 42.4633 50.2845C42.0849 50.6431 41.8957 51.268 41.8957 52.1589V56.9492H39.4875V47.334H41.8957V48.8266ZM52.6133 46.1364V50.1803H56.9825V51.482H52.6133V55.6475H57.4986V56.9492H51.048V44.8347H57.4986V46.1364H52.6133ZM59.2822 52.1589C59.2822 51.187 59.4773 50.3365 59.867 49.6076C60.2573 48.8671 60.7906 48.2943 61.4668 47.8894C62.1549 47.4844 62.9235 47.2819 63.7718 47.2819C64.5061 47.2819 65.1882 47.4555 65.8188 47.8026C66.4499 48.1381 66.9315 48.5836 67.2637 49.139V44.1058H68.8463V56.9492H67.2637V55.1615C66.9541 55.7283 66.4956 56.1969 65.8876 56.5673C65.2802 56.9258 64.569 57.1054 63.7546 57.1054C62.9176 57.1054 62.1549 56.8971 61.4668 56.4805C60.7906 56.064 60.2573 55.4799 59.867 54.7276C59.4773 53.9755 59.2822 53.1193 59.2822 52.1589ZM67.2637 52.1763C67.2637 51.4589 67.1207 50.8341 66.8337 50.3018C66.5472 49.7696 66.1574 49.3646 65.664 49.0869C65.1823 48.7977 64.6491 48.653 64.0642 48.653C63.4794 48.653 62.9461 48.7919 62.4645 49.0696C61.9828 49.3473 61.599 49.7522 61.312 50.2845C61.0255 50.8167 60.8819 51.4415 60.8819 52.1589C60.8819 52.8879 61.0255 53.5242 61.312 54.0681C61.599 54.6001 61.9828 55.0113 62.4645 55.3003C62.9461 55.578 63.4794 55.7169 64.0642 55.7169C64.6491 55.7169 65.1823 55.578 65.664 55.3003C66.1574 55.0113 66.5472 54.6001 66.8337 54.0681C67.1207 53.5242 67.2637 52.8937 67.2637 52.1763ZM79.8515 47.4381V56.9492H78.2862V55.5433C77.9884 56.0293 77.5696 56.4111 77.0305 56.6888C76.5031 56.9551 75.9183 57.088 75.2759 57.088C74.5421 57.088 73.8826 56.9378 73.2977 56.6367C72.7129 56.3243 72.2484 55.8617 71.9044 55.2483C71.5722 54.6348 71.4055 53.8887 71.4055 53.0094V47.4381H72.9537V52.8011C72.9537 53.7383 73.1891 54.4613 73.6589 54.9706C74.1293 55.4679 74.7717 55.7169 75.5855 55.7169C76.423 55.7169 77.0821 55.4565 77.5637 54.9359C78.0453 54.4152 78.2862 53.6573 78.2862 52.6622V47.4381H79.8515ZM81.9098 52.1763C81.9098 51.1928 82.1049 50.3365 82.4946 49.6076C82.8844 48.8671 83.4235 48.2943 84.1116 47.8894C84.8109 47.4844 85.6081 47.2819 86.5026 47.2819C87.661 47.2819 88.6125 47.5654 89.3581 48.1323C90.1149 48.6993 90.6138 49.4861 90.8546 50.4927H89.1689C89.0081 49.9142 88.6931 49.4572 88.2228 49.1216C87.7642 48.7861 87.1907 48.6183 86.5026 48.6183C85.6081 48.6183 84.8857 48.9307 84.3352 49.5555C83.7848 50.1688 83.5095 51.0423 83.5095 52.1763C83.5095 53.3218 83.7848 54.2069 84.3352 54.8317C84.8857 55.4565 85.6081 55.7689 86.5026 55.7689C87.1907 55.7689 87.7642 55.6068 88.2228 55.283C88.6813 54.9592 88.9968 54.496 89.1689 53.8945H90.8546C90.6025 54.8664 90.0977 55.6475 89.3409 56.2376C88.584 56.8163 87.6379 57.1054 86.5026 57.1054C85.6081 57.1054 84.8109 56.903 84.1116 56.4979C83.4235 56.0927 82.8844 55.52 82.4946 54.7797C82.1049 54.0392 81.9098 53.1714 81.9098 52.1763ZM92.3587 52.1589C92.3587 51.187 92.5533 50.3365 92.9435 49.6076C93.3333 48.8671 93.8665 48.2943 94.5433 47.8894C95.2313 47.4844 95.9936 47.2819 96.8311 47.2819C97.6568 47.2819 98.3733 47.4613 98.9813 47.8199C99.5887 48.1786 100.042 48.6299 100.34 49.1737V47.4381H101.923V56.9492H100.34V55.1788C100.031 55.7342 99.5661 56.1969 98.9469 56.5673C98.3389 56.9258 97.6277 57.1054 96.8139 57.1054C95.9764 57.1054 95.2195 56.8971 94.5433 56.4805C93.8665 56.064 93.3333 55.4799 92.9435 54.7276C92.5533 53.9755 92.3587 53.1193 92.3587 52.1589ZM100.34 52.1763C100.34 51.4589 100.197 50.8341 99.9102 50.3018C99.6231 49.7696 99.2334 49.3646 98.7405 49.0869C98.2588 48.7977 97.7256 48.653 97.1407 48.653C96.5559 48.653 96.0226 48.7919 95.541 49.0696C95.0593 49.3473 94.675 49.7522 94.3885 50.2845C94.1014 50.8167 93.9584 51.4415 93.9584 52.1589C93.9584 52.8879 94.1014 53.5242 94.3885 54.0681C94.675 54.6001 95.0593 55.0113 95.541 55.3003C96.0226 55.578 96.5559 55.7169 97.1407 55.7169C97.7256 55.7169 98.2588 55.578 98.7405 55.3003C99.2334 55.0113 99.6231 54.6001 99.9102 54.0681C100.197 53.5242 100.34 52.8937 100.34 52.1763ZM106.477 48.7398V54.3458C106.477 54.8084 106.575 55.1382 106.77 55.3351C106.964 55.52 107.303 55.6127 107.784 55.6127H108.937V56.9492H107.527C106.655 56.9492 106.001 56.7468 105.566 56.3417C105.13 55.9365 104.912 55.2716 104.912 54.3458V48.7398H103.691V47.4381H104.912V45.043H106.477V47.4381H108.937V48.7398H106.477ZM111.642 45.8934C111.344 45.8934 111.092 45.7893 110.885 45.581C110.679 45.3727 110.576 45.1182 110.576 44.8174C110.576 44.5165 110.679 44.262 110.885 44.0537C111.092 43.8454 111.344 43.7413 111.642 43.7413C111.929 43.7413 112.17 43.8454 112.365 44.0537C112.571 44.262 112.674 44.5165 112.674 44.8174C112.674 45.1182 112.571 45.3727 112.365 45.581C112.17 45.7893 111.929 45.8934 111.642 45.8934ZM112.399 47.4381V56.9492H110.834V47.4381H112.399ZM119.178 57.1054C118.295 57.1054 117.492 56.903 116.77 56.4979C116.059 56.0927 115.497 55.52 115.084 54.7797C114.683 54.0276 114.482 53.1598 114.482 52.1763C114.482 51.2043 114.688 50.3481 115.101 49.6076C115.525 48.8555 116.099 48.2827 116.821 47.8894C117.544 47.4844 118.352 47.2819 119.247 47.2819C120.141 47.2819 120.95 47.4844 121.672 47.8894C122.395 48.2827 122.962 48.8497 123.375 49.5902C123.799 50.3307 124.012 51.1928 124.012 52.1763C124.012 53.1598 123.793 54.0276 123.358 54.7797C122.933 55.52 122.354 56.0927 121.621 56.4979C120.886 56.903 120.073 57.1054 119.178 57.1054ZM119.178 55.7169C119.74 55.7169 120.267 55.584 120.761 55.3177C121.254 55.0514 121.649 54.6522 121.948 54.1201C122.257 53.5879 122.412 52.9399 122.412 52.1763C122.412 51.4126 122.263 50.7646 121.965 50.2324C121.666 49.7002 121.277 49.3067 120.795 49.0522C120.313 48.7861 119.791 48.653 119.23 48.653C118.656 48.653 118.129 48.7861 117.647 49.0522C117.177 49.3067 116.798 49.7002 116.512 50.2324C116.225 50.7646 116.082 51.4126 116.082 52.1763C116.082 52.9515 116.219 53.6053 116.495 54.1375C116.781 54.6696 117.16 55.0687 117.63 55.3351C118.1 55.5894 118.616 55.7169 119.178 55.7169ZM130.663 47.2645C131.809 47.2645 132.738 47.6175 133.449 48.3233C134.16 49.0175 134.516 50.0241 134.516 51.3432V56.9492H132.968V51.5688C132.968 50.62 132.732 49.8968 132.263 49.3993C131.792 48.8902 131.15 48.6357 130.336 48.6357C129.51 48.6357 128.851 48.896 128.358 49.4167C127.876 49.9374 127.635 50.6952 127.635 51.6903V56.9492H126.07V47.4381H127.635V48.7919C127.945 48.3059 128.363 47.9299 128.891 47.6637C129.43 47.3976 130.02 47.2645 130.663 47.2645Z" fill="url(#paint0_linear_3326_13)"/>
<defs>
<linearGradient id="paint0_linear_3326_13" x1="3.00012" y1="52.4999" x2="141" y2="52.4999" gradientUnits="userSpaceOnUse">
<stop stop-color="#252739"/>
<stop offset="1" stop-color="#56C6E7"/>
</linearGradient>
</defs>
</svg>
